<?xml version="1.0" encoding="utf-8"?>
<!-- Generator: Adobe Illustrator 25.1.0, SVG Export Plug-In . SVG Version: 6.00 Build 0)  -->
<svg version="1.1" id="Capa_1" xmlns="http://www.w3.org/2000/svg" xmlns:xlink="http://www.w3.org/1999/xlink" x="0px" y="0px"
	 viewBox="0 0 187.1 136.6" style="enable-background:new 0 0 187.1 136.6;" xml:space="preserve">
<style type="text/css">
	.st0{fill-rule:evenodd;clip-rule:evenodd;fill:#312783;}
	.st1{fill-rule:evenodd;clip-rule:evenodd;fill:#E30613;}
</style>
<g>
	<path class="st0" d="M106.8,78.2c-4.2,2.5-9.2,4-14.1,4c-15.1,0-27.4-12.3-27.4-27.4c0-15.1,12.3-27.4,27.4-27.4
		c4.9,0,9.9,1.5,14.1,3.9V1.9C102.3,0.9,97.4,0,92.7,0C62.6,0,38,24.6,38,54.8c0,30.1,24.6,54.7,54.8,54.7c4.7,0,9.6-0.9,14.1-1.9
		V78.2L106.8,78.2z"/>
	<polygon class="st0" points="106.8,52.4 129.9,52.4 150.4,31.9 106.8,31.9 106.8,52.4 	"/>
	<polygon class="st1" points="150.4,77.6 129.9,57.1 106.8,57.1 106.8,77.6 150.4,77.6 	"/>
	<path class="st0" d="M28.8,124.1c-1,0-1.8,0.4-2.4,1.2c-0.6,0.8-0.9,1.8-0.9,3.1c0,1.3,0.3,2.3,0.9,3.1c0.6,0.8,1.4,1.2,2.4,1.2
		c1,0,1.8-0.4,2.4-1.2c0.6-0.8,0.9-1.8,0.9-3.1c0-1.3-0.3-2.4-0.9-3.2C30.6,124.5,29.8,124.1,28.8,124.1L28.8,124.1z M179.4,133
		c0.4,0.1,0.8,0.1,1.3,0.1c0.8,0,1.6-0.1,2.4-0.3c0.8-0.2,1.7-0.5,2.6-1v3.7c-0.9,0.3-1.7,0.5-2.7,0.7c-0.9,0.2-1.9,0.2-2.9,0.2
		c-0.3,0-0.5,0-0.8,0c-2.4-0.1-4.3-0.9-5.7-2.2c-1.6-1.5-2.3-3.5-2.3-6.1c0-2.4,0.7-4.2,2.2-5.6c1.4-1.4,3.4-2.1,5.8-2.1
		c0,0,0,0,0,0c2.4,0,4.3,0.7,5.7,2.2c1.3,1.4,2,3.5,2,6.1v1.3h-7.7h-3c0.1,1,0.5,1.8,1.3,2.3C178.2,132.7,178.7,132.9,179.4,133
		L179.4,133z M179.4,127h3.1c-0.1-1-0.4-1.8-1-2.4c-0.5-0.6-1.3-0.9-2.1-0.9c0,0,0,0,0,0c-0.8,0-1.5,0.3-2.1,0.9
		c-0.5,0.6-0.9,1.4-1,2.4H179.4L179.4,127z M147.5,132.8c1,0,1.8-0.4,2.4-1.2c0.6-0.8,0.9-1.8,0.9-3.1c0-1.3-0.3-2.4-0.9-3.2
		c-0.6-0.8-1.4-1.2-2.4-1.2c-1,0-1.8,0.4-2.4,1.2c-0.6,0.8-0.9,1.8-0.9,3.1c0,1.3,0.3,2.3,0.9,3.1
		C145.7,132.4,146.5,132.8,147.5,132.8L147.5,132.8z M147.5,120.5c2.7,0,4.9,0.7,6.4,2.1c1.6,1.4,2.3,3.4,2.3,5.9
		c0,2.5-0.8,4.4-2.3,5.9c-1.5,1.4-3.7,2.1-6.4,2.1c-2.7,0-4.9-0.7-6.4-2.1c-1.6-1.4-2.3-3.4-2.3-5.9c0-2.5,0.8-4.5,2.3-5.9
		C142.6,121.2,144.8,120.5,147.5,120.5L147.5,120.5z M170.2,120.6l-0.3,4.5c-0.2-0.1-0.5-0.1-0.7-0.2c-0.3,0-0.6-0.1-0.9-0.1
		c-1.2,0-2.2,0.4-2.8,1.2c-0.6,0.8-1,2-1,3.5v6.5h-5.2v-15.2h4.7v2.9c0.5-1.1,1.2-2,1.9-2.5c0.8-0.5,1.7-0.8,2.7-0.8
		C168.9,120.5,169.4,120.5,170.2,120.6L170.2,120.6L170.2,120.6z M127.3,132.5c1,0,1.8-0.4,2.3-1.1c0.6-0.7,0.8-1.7,0.8-3
		c0-1.3-0.3-2.2-0.9-3c-0.6-0.7-1.3-1.1-2.3-1.1c0,0-0.1,0-0.1,0c-0.9,0-1.6,0.4-2.2,1.1c-0.6,0.8-0.9,1.8-0.9,3
		c0,1.2,0.3,2.2,0.9,2.9C125.5,132.1,126.3,132.5,127.3,132.5C127.3,132.5,127.3,132.5,127.3,132.5L127.3,132.5z M127.3,120.7
		c0.4,0.1,0.7,0.2,1,0.4c0.8,0.4,1.6,1,2.2,1.9v-9.1h5.2v22.2H131v-3c-0.6,1.1-1.3,1.9-2.3,2.4c-0.5,0.3-0.9,0.5-1.5,0.6
		c-0.5,0.1-1.1,0.2-1.8,0.2c-2,0-3.7-0.7-4.9-2.2c-1.3-1.5-1.9-3.4-1.9-5.8c0-2.4,0.6-4.3,1.8-5.7c1.2-1.4,2.9-2.1,4.9-2.1
		C126.1,120.5,126.7,120.6,127.3,120.7L127.3,120.7z M107.6,132.8c1,0,1.8-0.4,2.4-1.2c0.6-0.8,0.9-1.8,0.9-3.1
		c0-1.3-0.3-2.4-0.9-3.2c-0.6-0.8-1.4-1.2-2.4-1.2c-1,0-1.8,0.4-2.4,1.2c-0.6,0.8-0.9,1.8-0.9,3.1c0,1.3,0.3,2.3,0.9,3.1
		C105.8,132.4,106.6,132.8,107.6,132.8L107.6,132.8z M107.6,120.5c2.7,0,4.9,0.7,6.4,2.1c1.6,1.4,2.3,3.4,2.3,5.9
		c0,2.5-0.8,4.4-2.3,5.9c-1.6,1.4-3.7,2.1-6.4,2.1c-2.7,0-4.9-0.7-6.4-2.1c-1.6-1.4-2.3-3.4-2.3-5.9c0-2.5,0.8-4.5,2.3-5.9
		C102.7,121.2,104.8,120.5,107.6,120.5L107.6,120.5z M28.8,136.5c-2.7,0-4.9-0.7-6.4-2.1c-1.5-1.4-2.3-3.4-2.3-5.9
		c0-2.5,0.8-4.5,2.3-5.9c1.6-1.4,3.7-2.1,6.4-2.1c2.7,0,4.9,0.7,6.4,2.1c1.5,1.4,2.3,3.4,2.3,5.9c0,2.5-0.8,4.4-2.3,5.9
		C33.7,135.8,31.6,136.5,28.8,136.5L28.8,136.5z M55.6,123.7c0.6-1,1.3-1.8,2.3-2.4c0.9-0.5,1.9-0.8,3.1-0.8c1.8,0,3.2,0.6,4.1,1.7
		c1,1.1,1.4,2.8,1.4,5v8.9h-5.1v-7.8c0-1.2-0.2-2.1-0.6-2.6c-0.4-0.5-1-0.8-1.8-0.8c-0.8,0-1.5,0.4-2,1.1c-0.5,0.7-0.7,1.7-0.7,2.9
		v7.3H51v-7.8c0-1.2-0.2-2.1-0.6-2.6c-0.4-0.5-1-0.8-1.8-0.8c-0.8,0-1.5,0.4-2,1.1c-0.5,0.7-0.8,1.7-0.8,2.9v7.3h-5.2v-15.2h4.7v2.7
		c0.6-1,1.3-1.8,2.2-2.3c0.9-0.5,1.9-0.8,3-0.8c1.2,0,2.2,0.3,3.1,0.8C54.5,121.9,55.2,122.7,55.6,123.7L55.6,123.7z M85.1,123.7
		c0.6-1,1.3-1.8,2.3-2.4c0.9-0.5,1.9-0.8,3.1-0.8c1.8,0,3.1,0.6,4.1,1.7c1,1.1,1.4,2.8,1.4,5v8.9h-5.1v-7.8c0-1.2-0.2-2.1-0.6-2.6
		c-0.4-0.5-1-0.8-1.8-0.8c-0.8,0-1.5,0.4-2,1.1c-0.5,0.7-0.7,1.7-0.7,2.9v7.3h-5.2v-7.8c0-1.2-0.2-2.1-0.6-2.6
		c-0.4-0.5-1-0.8-1.8-0.8c-0.8,0-1.5,0.4-2,1.1c-0.5,0.7-0.8,1.7-0.8,2.9v7.3h-5.2v-15.2h4.7v2.7c0.6-1,1.3-1.8,2.2-2.3
		c0.9-0.5,1.9-0.8,3-0.8c1.2,0,2.2,0.3,3,0.8C84,121.9,84.7,122.7,85.1,123.7L85.1,123.7z M17.7,116.2l-0.5,4.3
		c-0.8-0.5-1.6-0.8-2.4-1c-0.8-0.2-1.7-0.3-2.5-0.3c-2.1,0-3.7,0.6-4.9,1.8c-1.2,1.2-1.8,2.8-1.8,4.8c0,2,0.6,3.6,1.9,4.8
		c1.2,1.2,2.9,1.8,5,1.8c0.8,0,1.6-0.1,2.5-0.3c0.8-0.2,1.7-0.5,2.6-0.9l0.3,4.6c-1,0.3-2,0.5-2.9,0.6c-1,0.1-2,0.2-3,0.2
		c-3.7,0-6.6-1-8.7-2.9c-2.1-1.9-3.1-4.6-3.1-8c0-3.3,1-5.9,3.1-7.8c2.1-1.9,4.8-2.9,8.4-2.9c1.2,0,2.3,0.1,3.4,0.3
		C15.8,115.5,16.8,115.8,17.7,116.2L17.7,116.2z"/>
</g>
</svg>
