<?xml version="1.0" standalone="no"?>
<!DOCTYPE svg PUBLIC "-//W3C//DTD SVG 20010904//EN"
 "http://www.w3.org/TR/2001/REC-SVG-20010904/DTD/svg10.dtd">
<svg version="1.0" xmlns="http://www.w3.org/2000/svg"
 width="350.000000pt" height="350.000000pt" viewBox="0 0 350.000000 350.000000"
 preserveAspectRatio="xMidYMid meet">

<g transform="translate(0.000000,350.000000) scale(0.100000,-0.100000)"
fill="#000000" stroke="none">
<path d="M1515 3485 c-695 -103 -1251 -582 -1444 -1246 -44 -148 -62 -263 -68
-425 -26 -678 344 -1310 947 -1618 373 -190 755 -241 1168 -156 209 44 472
159 652 287 183 131 387 357 504 561 142 247 226 568 226 862 0 701 -422 1337
-1070 1612 -279 119 -627 165 -915 123z m58 -1217 c183 -105 402 -232 487
-281 85 -49 210 -121 278 -159 67 -39 122 -74 122 -78 0 -4 -233 -141 -518
-306 -284 -164 -558 -322 -609 -351 -50 -29 -94 -53 -97 -53 -3 0 -6 320 -6
710 0 391 2 710 5 710 3 0 155 -86 338 -192z"/>
</g>
</svg>
